# xmcd CD database file
#
# Track frame offsets:
#	150
#	30127
#	56200
#	77672
#	96617
#	117510
#	147402
#	167522
#	197615
#	209042
#	237502
#	256777
#	271970
#	291942
#
# Disc length: 4070 seconds
#
# Revision: 1
# Processed by: cddbd v1.4PL0 Copyright (c) Steve Scherf et al.
# Submitted via: CDex 1.50beta10
#
DISCID=d20fe40e
DTITLE=the Jazz Plays Motown collection - Jazz Plays Motown
DYEAR=2001
DGENRE=Jazz
TTITLE0=GRANT GREEN - Walk in the night
TTITLE1=EVERETTE HARP - What's going on
TTITLE2=RICHARD ELLIOTT - Ain't nothing like the real thing
TTITLE3=EARL KLUGH - I heard it through the grapevine
TTITLE4=DONALD BYRD - Just my imagination (Running away with me)
TTITLE5=NOEL POINTER - Living for the city
TTITLE6=GRANT GREEN - If you really love me
TTITLE7=BIG JOHN PATTON - ain't that peculiar
TTITLE8=THE JAZZ CRUSADERS -Uptight (Everthing's alright)
TTITLE9=REUBEN WILSON - Signed, sealed, delivered (I'm yours)
TTITLE10=DAVE KOZ - I'll be there
TTITLE11=STANLEY TURRENTINE - Sir Duke
TTITLE12=BOBBY HUTCHERSON - Inner City Blues (Make me wanna holler)
TTITLE13=EVERETTE HARP - Mercy Mercy Me
EXTD=YEAR: 2001
EXTT0=
EXTT1=
EXTT2=
EXTT3=
EXTT4=
EXTT5=
EXTT6=
EXTT7=
EXTT8=
EXTT9=
EXTT10=
EXTT11=
EXTT12=
EXTT13=
PLAYORDER=
